<?xml version="1.0" standalone="no"?>
<!DOCTYPE svg PUBLIC "-//W3C//DTD SVG 20010904//EN"
 "http://www.w3.org/TR/2001/REC-SVG-20010904/DTD/svg10.dtd">
<svg version="1.0" xmlns="http://www.w3.org/2000/svg"
 width="240.000000pt" height="240.000000pt" viewBox="0 0 240.000000 240.000000"
 preserveAspectRatio="xMidYMid meet">
<metadata>
Created by potrace 1.14, written by Peter Selinger 2001-2017
</metadata>
<g transform="translate(0.000000,240.000000) scale(0.100000,-0.100000)"
fill="#000000" stroke="none">
<path d="M833 2187 c-60 -23 -118 -88 -127 -142 -2 -16 -5 -78 -5 -137 l-1
-108 -164 0 c-208 0 -246 -12 -305 -98 l-26 -37 -3 -590 c-2 -422 0 -601 8
-629 17 -57 49 -95 102 -122 l46 -24 844 0 843 0 45 23 c32 17 54 38 77 77
l33 54 -1 595 c-1 656 1 630 -64 694 -49 47 -96 57 -279 57 l-156 0 0 115 c0
63 0 117 0 120 0 3 -11 27 -24 54 -24 47 -54 74 -108 98 -39 17 -690 17 -735
0z m667 -287 l0 -100 -300 0 -300 0 0 100 0 100 300 0 300 0 0 -100z m-700
-850 l0 -550 -100 0 -100 0 0 550 0 550 100 0 100 0 0 -550z m1000 0 l0 -550
-100 0 -100 0 0 550 0 550 100 0 100 0 0 -550z"/>
</g>
</svg>
